<?xml version="1.0" encoding="utf-8"?>
<!-- Generator: Adobe Illustrator 19.0.0, SVG Export Plug-In . SVG Version: 6.00 Build 0)  -->
<svg version="1.1" id="Layer_1" xmlns="http://www.w3.org/2000/svg" xmlns:xlink="http://www.w3.org/1999/xlink" x="0px" y="0px"
	 viewBox="0 0 337.4 205.8" style="enable-background:new 0 0 337.4 205.8;" xml:space="preserve">
<style type="text/css">
	.st0{fill:#111111;}
	.st1{fill:#FFFFFF;}
	.st2{fill:#D43D29;}
	.st3{fill:#1870EF;}
	.st4{fill:#05A45E;}
</style>
<g id="XMLID_89_">
	<path id="XMLID_103_" class="st0" d="M188.7,195.3c0.2,0,0.4,0,0.5,0v0C189.1,195.3,188.9,195.3,188.7,195.3z"/>
	<path id="XMLID_101_" class="st0" d="M188.2,195.3L188.2,195.3c0.2,0,0.3,0,0.5,0C188.6,195.3,188.4,195.3,188.2,195.3z"/>
	<path id="XMLID_100_" class="st0" d="M249.3,186.6c-5.7,3.5-13,4.5-18.9,4.7c-0.1,0-0.2,0-0.4,0c-0.1,0-0.2,0-0.3,0
		c-6.3-0.1-14.2-1.2-20.2-4.7c-9-5.2-9.3-12.4-8.4-22.6c0,0,0.5-22.7,0.4-30.7h24.6c-0.1,10-0.3,35.3,0,38.2
		c0.2,1.3,0.9,2.8,3.9,3.8h0c2.7,0,3.3-2.6,3.5-3.9c0.4-2.7,0.2-26.1,0.1-38.1h23c-0.1,8,0.4,30.7,0.4,30.7
		C258.1,174.3,257.8,181.4,249.3,186.6z"/>
	<path id="XMLID_99_" class="st0" d="M264.1,135.3c5.7-3.5,13-4.5,18.9-4.7c0.1,0,0.2,0,0.4,0c0.1,0,0.2,0,0.3,0
		c6.3,0.1,14.2,1.2,20.2,4.7c9,5.2,9.3,12.3,8.4,22.5c0,0-0.5,22.6-0.4,30.6h-24.6c0.1-10,0.3-35.3,0-38.2c-0.2-1.3-0.9-3.8-3.9-3.8
		h0c-2.7,0-3.3,2.6-3.5,3.9c-0.4,2.7-0.2,27.1-0.1,38.1h-23c0.1-8-0.4-30.6-0.4-30.6C255.4,147.5,255.6,140.5,264.1,135.3z"/>
	<path id="XMLID_95_" class="st0" d="M78.8,180.3c-3.2-0.1-3.6-2.7-4.2-4.1c-0.6-1.4-0.6-8.1,0.4-18.3c0.9-10.2,0.6-17.5-8.4-22.7
		c-9-5.2-22.2-5-28-4.4c-5.8,0.7-11.3,2.6-15.1,6c-3.8,3.4-6.1,10-2.5,15.1s11.9,3.6,15,2.6c3-1,3.9-2.5,4.9-4c1-1.5-0.2-5,0-5.8
		c0.2-0.8,1.2-3.2,4.6-3.4c3.4-0.2,4.2,2.2,4.4,3.6c0.5,3.7,0,14.8,0,14.8c-36.4-1.1-36.8,15.1-36.6,17.9
		c0.2,2.8,1.2,11.2,15.7,12.8c14.6,1.6,22.7-8.5,22.7-8.5c5.3,7.8,12.6,9.8,21,9.4c8.4-0.4,13.6-7.3,13.6-7.3v-10.1
		C86.2,173.9,82,180.4,78.8,180.3z M50.6,174.7c-0.5,1.5-1,1.8-1,1.8c-4.3,4.1-7.8,2-8.9,1.8c-1.1-0.3-5-4.2-1.2-9
		c3.8-4.8,10.6-4.4,10.6-4.4l0.8,0C50.9,164.9,51.1,173.2,50.6,174.7z"/>
	<path id="XMLID_92_" class="st0" d="M202.9,177.2c-1.4,1.6-3.2,3.2-4.8,3.2c-3.2-0.1-3.5-2.7-4.1-4.1c-0.6-1.4-0.5-8.1,0.4-18.3
		c0.9-10.2,0.7-17.5-8.4-22.7c-9-5.2-22.1-5-27.9-4.4c-5.8,0.7-11.3,2.6-15.1,6c-3.8,3.4-6.1,10-2.5,15.1s11.9,3.6,15,2.6
		c3-1,3.9-2.5,4.9-4c1-1.5-0.2-5,0-5.8c0.2-0.8,1.2-3.2,4.6-3.4c3.4-0.2,4.2,2.2,4.4,3.6c0.5,3.7,0,14.8,0,14.8
		c-36.4-1.1-36.8,15.1-36.6,17.9c0.1,0.9,0.2,2.5,0.9,4.3c0.5,1.2,1.3,2.5,2.5,3.7c2.3,2.2,6,4.2,12.3,4.9
		c14.6,1.6,22.7-8.5,22.7-8.5c5.3,7.8,12.4,9.8,20.8,9.4c8.4-0.4,14.8-8.5,14.8-8.5l-1.4-8.9C205.3,173.9,204.3,175.5,202.9,177.2z
		 M170,174.7c-0.5,1.5-1,1.8-1,1.8c-4.3,4.1-7.8,2-8.9,1.8s-5-4.2-1.2-9c3.8-4.8,10.6-4.4,10.6-4.4l0.8,0
		C170.4,164.9,170.6,173.2,170,174.7z"/>
	<path id="XMLID_91_" class="st0" d="M82.2,184v6.4h17.7c0,0-2.2-22.1,8.3-19.5l13.2,19.8l20.2-0.2l-24.5-34.7l19.9-25.5h-21.7
		c0,0-4.2,13.7-8.3,13.3s-2-29.3-2-29.3h-9.7c0,0-1.9,11.4-12.9,11.4V184z"/>
	<path id="XMLID_90_" class="st1" d="M197.5,141.6c0,0,11.5,4,17.3-12.5s-19.3,0-19.3,0L197.5,141.6z"/>
</g>
<path id="XMLID_39_" class="st2" d="M118.2,90.9L118.2,90.9c-2-3.3-1.6-7.4,0.5-11l16.7-29l1.3-2.3l16.5-28.6c2-3.5,5.4-5.5,9-5.9
	l-0.1,49.6l0,0v1.6l-1.1,0.6L118.2,90.9z"/>
<path id="XMLID_41_" class="st3" d="M165.2,68.3l42.6,24.7c-2.1,2.8-5.5,4.4-9.5,4.4h-69.2c-4,0-7.4-1.6-9.5-4.4l42.5-24.7l0.4-0.2
	l1.2-0.7l0,0l1.1,0.6L165.2,68.3z"/>
<path id="XMLID_42_" class="st4" d="M209.3,90.9l-42.7-25l-0.1-0.1l-1-0.7l-0.2-0.2v-1.5l0-49.4c-0.4-0.1-1-0.1-1.5-0.1
	c0.5,0,1,0,1.5,0.1c3.5,0.4,6.8,2.4,8.9,5.9l16.5,28.6l0.6,1l0.8,1.4l5,8.6l0.4,0.7l11.3,19.7c0.3,0.6,0.6,1.2,0.8,1.8l0,0
	C210.8,84.8,210.6,88.1,209.3,90.9z"/>
</svg>
